<svg xmlns="http://www.w3.org/2000/svg" width="15" height="15" viewBox="0 0 32 32"><g fill="#fff" fill-rule="evenodd"><rect width="30.5" height="30.5" x=".75" y=".75" stroke="#ff3c3c" stroke-width="1.5" rx="15.25"></rect><path fill="#ff3c3c" fill-rule="nonzero" d="M17.016 18.104l.784-8.705V8.7a.5.5 0 0 0-.5-.5h-2.6a.5.5 0 0 0-.5.5v.7l.784 8.704a.2.2 0 0 0 .199.182h1.634a.2.2 0 0 0 .2-.182z"></path><path fill="#ff3c3c" d="M15 20.5h2a.5.5 0 0 1 .5.5v2a.5.5 0 0 1-.5.5h-2a.5.5 0 0 1-.5-.5v-2a.5.5 0 0 1 .5-.5z"></path></g></svg>