<svg xmlns="http://www.w3.org/2000/svg" width="54" height="40" viewBox="0 0 157 116">
  <path fill="#FFF" fill-rule="evenodd" d="M124.77 44.657c6.972 0 12.624-5.62 12.624-12.553 0-6.932-5.652-12.552-12.623-12.552-6.97 0-12.62 5.62-12.62 12.552 0 6.933 5.65 12.553 12.63 12.553zm-16.056-12.553c0-8.818 7.19-15.967 16.057-15.967 8.87 0 16.06 7.15 16.06 15.967 0 8.82-7.19 15.968-16.06 15.968-8.86 0-16.05-7.15-16.05-15.968zm-22.36 0c1.987-.25 5.3-2.51 6.466-3.95-.41 1.786-.443 6.96.037 8.75-1.33-2.04-4.484-4.55-6.503-4.8zM74.81 15.2c2.524 0 4.51 2.478 4.51 5.3 0 2.822-1.986 5.302-4.51 5.302h-8.674V15.2h8.674zm-.032 23.553c2.524 0 4.51 2.48 4.51 5.3 0 2.824-1.986 5.302-4.51 5.302h-8.673V38.753h8.673zm49.983 25.524c17.68-.008 32.06-14.61 32.05-32.186 0-17.94-14.37-31.88-32.05-31.9-17.65-.01-26.67 12.91-28.9 18.13.02-7.82-7.74-17.07-16.82-17.08H49.8v62.72l27.267.01c10.993 0 18.817-9.47 18.83-17.59 2.51 5.11 11.214 17.91 28.868 17.9zm-78.53-.295H29.09V39.638H17.964v24.344H.37L.307 1.24h17.657v23.34H29.09V1.24h17.14v62.742zM.31 75.035h154.988v-1.487H.306M153.294 5.583c.156 0 .277-.035.366-.106.085-.07.13-.165.13-.284V5.18c0-.128-.045-.224-.13-.29-.09-.067-.21-.1-.37-.1h-.623v.793h.623zM152.19 4.36h1.124c.326 0 .582.092.763.272.137.128.207.3.207.522v.013c0 .203-.054.367-.164.492-.11.12-.25.21-.422.26l.677.94h-.57l-.612-.86h-.524v.86h-.48v-2.5zm.964 3.475c.306 0 .59-.057.854-.17.262-.116.49-.27.684-.463.192-.194.344-.422.454-.684.11-.262.168-.54.168-.837v-.01c0-.29-.057-.57-.165-.83-.11-.26-.26-.48-.46-.68-.2-.19-.42-.34-.68-.46-.26-.11-.55-.16-.85-.16-.31 0-.59.06-.86.17-.266.12-.495.27-.686.468-.194.194-.346.42-.457.684-.11.26-.166.54-.166.835v.01c0 .297.056.574.164.835.11.254.26.482.455.676.194.193.42.346.68.46.264.11.546.167.85.167zm0 .238c-.337 0-.652-.062-.944-.188-.292-.125-.544-.296-.76-.512-.214-.217-.384-.468-.507-.757-.126-.288-.187-.596-.187-.92V5.68c0-.324.06-.63.187-.92.123-.288.295-.54.51-.758.218-.22.473-.392.768-.52.3-.127.61-.19.95-.19.34 0 .65.062.95.187.29.12.55.29.76.51.22.21.39.46.51.75.13.29.19.59.19.92v.01c0 .33-.06.63-.184.92-.126.29-.294.54-.512.76-.213.22-.47.39-.763.52-.293.122-.61.19-.945.19zM.69 88.823h18.82v2.7H3.627v8.763h14.208v2.7H3.628v9.024h16.067v2.7H.69V88.82m33.92 26.26c-2.083 0-3.987-.34-5.71-1.017-1.724-.678-3.366-1.72-4.928-3.125l1.822-2.146c1.363 1.234 2.74 2.152 4.13 2.755 1.387.605 2.987.907 4.796.907 1.76 0 3.168-.413 4.222-1.24 1.053-.825 1.58-1.88 1.58-3.16v-.076c0-.592-.098-1.127-.298-1.608-.198-.48-.547-.918-1.044-1.313-.497-.394-1.187-.75-2.07-1.072-.88-.32-2.006-.63-3.373-.924-1.49-.32-2.79-.69-3.895-1.11-1.107-.41-2.02-.92-2.74-1.51-.72-.59-1.257-1.28-1.604-2.07-.348-.79-.52-1.71-.52-2.77v-.07c0-1.01.21-1.95.63-2.81.422-.86 1.017-1.61 1.786-2.24.77-.622 1.674-1.12 2.715-1.473 1.04-.36 2.18-.54 3.42-.54 1.91 0 3.57.266 5 .798 1.42.53 2.8 1.324 4.14 2.384l-1.71 2.25c-1.218-.988-2.44-1.704-3.66-2.147-1.23-.446-2.51-.668-3.85-.668-1.71 0-3.068.4-4.06 1.206-.99.8-1.49 1.798-1.49 2.98v.076c0 .617.1 1.165.3 1.646.2.48.558.924 1.078 1.33.52.408 1.24.778 2.16 1.11.916.333 2.095.648 3.533.944 2.9.617 5.04 1.497 6.42 2.644 1.38 1.145 2.068 2.705 2.068 4.677v.074c0 1.11-.22 2.113-.66 3.013-.44.9-1.05 1.677-1.823 2.317-.774.64-1.706 1.132-2.797 1.48-1.093.342-2.283.515-3.57.515m24.267-12.21c1.093 0 2.075-.137 2.946-.407.87-.27 1.624-.657 2.258-1.16.633-.504 1.12-1.107 1.455-1.807.33-.7.5-1.466.5-2.302v-.076c0-1.842-.64-3.237-1.92-4.184-1.28-.945-2.98-1.417-5.09-1.417h-6.6v11.353h6.45zm-9.39-14.055h9.745c1.46 0 2.793.192 3.997.573 1.2.384 2.23.926 3.086 1.63.85.702 1.51 1.56 1.97 2.57.46 1.01.69 2.157.69 3.44v.072c0 1.4-.28 2.63-.82 3.68-.55 1.04-1.28 1.93-2.21 2.64-.93.71-2.02 1.25-3.26 1.6-1.24.358-2.56.537-3.94.537h-6.32v9.133h-2.94V88.82zm39.162 16.42l-5.91-13.203-5.95 13.202H88.65zm-7.25-16.605h2.75l11.868 26.07h-3.16l-3.05-6.843H75.63l-3.086 6.84H69.53l11.866-26.07zm22.745-2.257c.49-1.403 1.095-2.4 1.815-2.993.72-.59 1.668-.887 2.845-.887.555 0 1.13.07 1.716.22.59.15 1.18.314 1.77.5.587.184 1.144.357 1.667.517.523.16.997.24 1.423.24.653 0 1.153-.136 1.496-.406.35-.27.7-.74 1.06-1.406l2.31.48c-.49 1.405-1.094 2.404-1.813 2.997-.72.59-1.67.886-2.85.886-.554 0-1.126-.08-1.715-.24-.59-.16-1.18-.335-1.77-.52-.59-.185-1.143-.35-1.666-.5-.525-.147-1-.22-1.424-.22-.653 0-1.15.136-1.495.406-.343.27-.695.74-1.055 1.4l-2.307-.48zm-2.96 2.443h2.75l16.4 20.748V88.82h2.865v25.887h-2.343L104.04 93.48v21.224h-2.864V88.82zm46.3 16.42l-5.91-13.202-5.95 13.202h11.864zm-7.252-16.604h2.754l11.86 26.08h-3.16l-3.05-6.84h-14.17l-3.09 6.84h-3.014l11.864-26.07z"/>
</svg>
